Coordinates
version=1
nRows=19
nColumns=36
inDegrees=yes

Units are S.I. units (second, meters, Newtons, ...)
If the header above contains a line with 'inDegrees', this indicates whether rotational values are in degrees (yes) or radians (no).

endheader
time	pelvis_tilt	pelvis_list	pelvis_rotation	pelvis_tx	pelvis_ty	pelvis_tz	hip_flexion_r	hip_adduction_r	hip_rotation_r	knee_angle_r	knee_angle_r_beta	ankle_angle_r	subtalar_angle_r	mtp_angle_r	hip_flexion_l	hip_adduction_l	hip_rotation_l	knee_angle_l	knee_angle_l_beta	ankle_angle_l	subtalar_angle_l	mtp_angle_l	lumbar_extension	lumbar_bending	lumbar_rotation	arm_flex_r	arm_add_r	arm_rot_r	elbow_flex_r	pro_sup_r	arm_flex_l	arm_add_l	arm_rot_l	elbow_flex_l	pro_sup_l
      2.40000000	     -9.42630721	      3.97580695	      1.70486574	      0.67169195	      1.28402428	     -0.57338953	     13.39461865	     -8.41878386	     -7.28016762	     31.30646820	      0.54640095	     -2.15105189	     -6.78053124	     -7.49999987	     14.88795875	     -1.98670657	     -7.53389884	     35.18002874	      0.61400733	     -0.64210888	     -8.36690810	     -7.49999987	     -5.15107050	     -4.33204895	     -8.15127502	     23.27726728	    -43.20484213	     44.46254829	     69.69976702	     63.78704317	    -39.92842864	    -47.74020852	    -33.18974609	     96.55707518	     73.09802960
      2.41666670	     -9.35670810	      3.72821892	      1.32493780	      0.68903149	      1.27495573	     -0.58040923	     14.17526674	     -8.45002604	     -7.37907478	     28.26609876	      0.49333649	     -4.10805641	     -5.93115369	     -7.49999987	     15.00736735	     -2.54145624	     -8.76267568	     31.26973096	      0.54575976	     -3.75469899	     -8.05475946	     -7.49999987	     -6.08824377	     -4.17902325	     -7.26627076	     20.09589337	    -47.03855692	     44.46639488	     69.74743798	     63.47274236	    -44.37632031	    -48.57726305	    -34.32020347	     96.90221691	     73.15792636
      2.43333330	     -9.46781998	      3.64653141	      0.71855571	      0.70117134	      1.24586603	     -0.57893733	     16.17278683	     -8.53167335	     -7.90033363	     26.88269531	      0.46919154	     -5.50100595	     -4.64704765	     -7.49999987	     15.96113224	     -3.02629002	     -9.27041284	     29.03157725	      0.50669661	     -5.45433439	     -8.11227810	     -7.49999987	     -7.25718523	     -4.57006648	     -6.76679458	     15.53264732	    -50.67589754	     40.63441112	     70.56925713	     62.90999329	    -52.51984937	    -48.12715136	    -40.03192606	     96.86429804	     72.44810828
      2.45000000	     -9.58499914	      3.00202742	      0.39866740	      0.71468656	      1.23383824	     -0.57863572	     17.81274013	     -8.07551503	     -8.95723173	     25.77704715	      0.44989434	     -6.94392379	     -3.78786208	     -7.49999987	     16.95469936	     -3.75224751	     -8.84978365	     26.51442838	      0.46276407	     -6.40168111	     -7.35282865	     -7.49999987	     -8.24492820	     -4.26430349	     -6.40291087	     11.90124556	    -54.36411981	     38.47069870	     70.15900896	     62.76789362	    -59.03514650	    -47.17215399	    -43.64613671	     96.80013581	     71.77994895
      2.46666670	     -9.61085146	      2.48431411	      0.57305650	      0.72214517	      1.22089427	     -0.58212548	     19.12784875	     -7.56380060	     -9.33902569	     23.32128865	      0.40703327	     -6.97182874	     -1.72233148	     -7.49999987	     18.73640031	     -4.47638086	     -8.10805803	     24.37702009	      0.42545926	     -9.25011016	     -7.04474211	     -7.49999987	     -9.37973501	     -3.73405358	     -6.25271562	      8.88666316	    -57.20204854	     38.45279473	     67.70659598	     62.37314834	    -62.23728563	    -46.50568092	    -43.94149897	     95.50858631	     71.46705252
      2.48333330	    -10.41110011	      2.27479144	      0.52371091	      0.72478622	      1.19342060	     -0.58313087	     22.16383198	     -7.35211197	     -8.91375159	     22.98961654	      0.40124450	     -6.66799952	     -0.60152382	     -7.49999987	     21.93734965	     -5.00501185	     -7.67988335	     23.71513480	      0.41390718	    -10.07899758	     -6.70029898	     -7.49999987	    -10.64089136	     -3.53088514	     -6.11035547	      5.59271354	    -60.43686992	     39.01863991	     66.61498240	     62.06451649	    -65.92966173	    -45.63709252	    -44.68619826	     94.24311111	     71.13482170
      2.50000000	    -11.27072567	      2.46630908	      0.43425199	      0.73301417	      1.17462898	     -0.58612875	     25.36540913	     -7.77587754	     -8.67827364	     22.67697789	      0.39578793	     -6.20961491	      0.76472114	     -7.49999987	     25.18021924	     -5.06453935	     -7.84961853	     22.76030898	      0.39724233	    -10.88674179	     -6.79089306	     -7.49999987	    -12.57909903	     -3.75406374	     -2.36611929	    -11.58733444	    -62.24920364	     22.01157067	     68.59492158	     58.34063566	    -66.14757583	    -48.71748732	    -41.75629129	     94.61038051	     68.85260144
      2.51666670	    -11.47706078	      2.32954508	     -0.09532456	      0.74659833	      1.15663312	     -0.58537480	     26.77631368	     -7.55605846	     -8.44214403	     21.19085074	      0.36985012	     -5.90637069	      2.26643827	     -7.49999987	     25.96965678	     -5.39733894	     -7.94141815	     19.98219630	      0.34875512	    -12.31738101	     -6.40367529	     -7.49999987	    -13.57491978	     -3.67398819	     -2.23045396	    -13.95697301	    -62.92148838	     22.81960909	     64.75055385	     58.03086911	    -66.71076706	    -46.11947359	    -40.44046516	     92.40228416	     68.99087568
      2.53333330	    -11.01043420	      2.08739595	     -0.76078700	      0.76853121	      1.12380973	     -0.59452672	     27.35158585	     -7.19885816	     -8.16639611	     20.00942040	      0.34923027	     -5.50444252	      2.80582004	     -7.49999987	     25.93225618	     -5.90363520	     -7.70173263	     17.58904645	      0.30698677	    -13.23517009	     -5.86026577	     -7.49999987	    -14.02671297	     -3.36947066	     -2.13721371	    -18.00522171	    -65.01690163	     24.26776573	     62.68414365	     58.00838468	    -70.34736581	    -42.41230696	    -39.05146204	     90.94629352	     69.08074614
      2.55000000	    -10.86632370	      2.11390915	     -0.97893277	      0.78921381	      1.09782311	     -0.59633175	     28.47847630	     -7.52591262	     -8.05579020	     20.71913501	      0.36161712	     -3.97641825	      4.77430203	     -7.49999987	     26.70441772	     -6.23258078	     -7.60708747	     17.51879677	      0.30576068	    -13.81327398	     -6.26023889	     -7.49999987	    -14.79583208	     -3.04101152	     -2.36339446	    -22.20965988	    -64.94721394	     24.74547142	     60.97776548	     53.35389030	    -68.38655885	    -37.58439732	    -35.10658103	     84.75236870	     75.44710650
      2.56666670	    -11.18643257	      1.80384251	     -0.82993294	      0.79329287	      1.05897115	     -0.59303237	     31.03406162	     -7.21538922	     -7.60901230	     22.56144694	      0.39377153	     -2.62085575	      5.33908391	     -7.49999987	     28.99013011	     -6.85761071	     -6.99559250	     18.58356081	      0.32434432	    -13.55347570	     -5.99892681	     -7.49999987	    -15.93718640	     -2.99854039	     -2.95690658	    -25.38667475	    -64.60087574	     25.86538692	     60.20202320	     53.16669254	    -69.33942651	    -35.22066399	    -32.06141292	     80.98735056	     75.97053832
      2.58333330	    -11.76313260	      1.50011213	     -0.39680441	      0.80161559	      1.01721148	     -0.59772949	     34.94019352	     -7.27597549	     -7.37028335	     26.56254534	      0.46360387	     -0.20730241	      5.28504777	     -7.49999987	     33.13991651	     -7.36616964	     -6.14272070	     21.87194421	      0.38173744	    -11.52503303	     -6.18832502	     -7.49999987	    -17.07847520	     -2.68674529	     -3.62270105	    -26.87848689	    -63.48566723	     25.89212427	     58.43557597	     53.40539895	    -67.59825064	    -32.20635162	    -30.22703827	     76.23825237	     75.39066198
      2.60000000	    -11.65821390	      1.22865480	     -0.01648764	      0.80576991	      0.98554481	     -0.59456031	     38.32814884	     -7.24705124	     -6.73929816	     30.56629921	      0.53348256	      1.73142217	      5.36925047	     -7.49999987	     37.10269984	     -7.81853432	     -4.94959243	     25.63837660	      0.44747409	     -9.56390328	     -7.03988530	     -7.49999987	    -19.12430890	     -2.26504970	     -4.09771683	    -24.45003952	    -59.35508029	     24.26106025	     54.85362343	     53.57291304	    -61.22865842	    -29.83025533	    -27.45774654	     68.30545047	     75.08687241
      2.61666670	    -11.94292067	      0.87767119	     -0.06198956	      0.82436249	      0.95042482	     -0.58913198	     41.02071390	     -6.65664296	     -6.33516059	     33.68850460	      0.58797533	      4.04808367	      5.54668047	     -7.49999987	     40.25611877	     -8.52812120	     -3.73242481	     28.55686709	      0.49841135	     -7.02423831	     -7.65843880	     -7.49999987	    -20.46555038	     -2.01318846	     -4.84595122	    -20.88253186	    -54.44491979	     22.21305239	     52.44917414	     54.05247683	    -56.29732406	    -28.34668529	    -24.76876127	     64.99418826	     75.49175112
      2.63333330	    -12.17861651	      1.06138398	      0.12006366	      0.84140018	      0.91499027	     -0.59355688	     43.46727725	     -6.54530684	     -5.09319127	     36.68540315	      0.64028107	      5.92019513	      5.35834352	     -7.49999987	     42.85753472	     -8.68948990	     -3.69809816	     32.51222031	      0.56744529	     -3.21119971	     -6.95929768	     -7.49999987	    -21.41830937	     -1.94484010	     -2.54666135	    -21.98372059	    -45.03576282	     11.40985087	     47.18495204	     65.88157160	    -45.43730017	    -28.81494614	    -19.78830131	     57.92027426	     88.27347803
      2.65000000	    -13.27253506	      1.53559467	      0.50703891	      0.84797217	      0.86729184	     -0.59886941	     48.53916154	     -6.86783451	     -3.09508557	     43.50602614	      0.75932340	     10.34441479	      4.42557841	     -7.49999987	     47.82949154	     -8.82472403	     -3.73744591	     40.16001436	      0.70092448	      3.40469468	     -5.66837167	     -7.49999987	    -21.87244322	     -2.22710735	     -3.12430579	    -16.51810731	    -38.43538355	      9.74579670	     43.57914687	     65.16691400	    -36.95911656	    -25.95108244	    -17.16183673	     53.48479392	     85.70223520
      2.66666670	    -13.75942577	      1.76706848	      0.70882041	      0.86203187	      0.83613706	     -0.60290207	     53.68391015	     -6.56482338	     -0.54535836	     52.08085911	      0.90898247	     14.86128223	      1.85104961	     -7.49999987	     52.89968845	     -9.27592805	     -3.34781641	     49.21922732	      0.85903757	     10.21768778	     -4.93505987	     -7.49999987	    -22.54320773	     -1.91052140	      0.48374170	    -13.64881152	    -30.82527156	      0.77242044	     39.29595631	     71.64257472	    -21.48140913	    -24.98027617	     -6.54124816	     43.18165424	     88.80944760
      2.68333330	    -14.31330296	      2.07285085	      0.89414565	      0.85975832	      0.80351759	     -0.60253104	     59.98051977	     -6.11560640	      2.02782211	     62.04367927	      1.08286648	     18.85016361	      0.23792594	     -7.49999987	     59.11622274	     -9.67871271	     -2.81751520	     59.20805699	      1.03337554	     16.63984386	     -3.49670145	     -7.49999987	    -25.28294961	     -2.20085543	      1.00060668	     -6.33629361	    -26.42673233	      0.14536622	     37.06284082	     70.47789757	    -11.13652717	    -22.00101390	     -4.94057367	     42.20954554	     87.95693369
      2.70000000	    -14.19013140	      2.34812993	      0.93743821	      0.87060610	      0.78741120	     -0.60994774	     63.83562922	     -5.83326345	      3.78301241	     69.65353115	      1.21568345	     22.21362085	     -0.50940373	     -7.49999987	     62.97521975	     -9.74525755	     -2.25012816	     67.04341015	      1.17012825	     21.63739464	     -2.31448694	     -7.49999987	    -30.55285613	     -2.70365989	      1.22627530	      2.02705207	    -22.56974049	     -0.18960875	     36.39632027	     69.84353873	     -2.20977503	    -18.74034103	     -3.38635403	     40.70884488	     88.03937037
